<?xml version="1.0" encoding="UTF-8" standalone="no"?>
<svg
   data-v-fde0c5aa=""
   viewBox="0 0 80 50"
   border="1px solid black"
   version="1.1"
   id="svg4"
   sodipodi:docname="logo.svg"
   inkscape:version="1.4 (e7c3feb100, 2024-10-09)"
   xmlns:inkscape="http://www.inkscape.org/namespaces/inkscape"
   xmlns:sodipodi="http://sodipodi.sourceforge.net/DTD/sodipodi-0.dtd"
   xmlns="http://www.w3.org/2000/svg"
   xmlns:svg="http://www.w3.org/2000/svg">
  <defs
     id="defs4" />
  <sodipodi:namedview
     id="namedview4"
     pagecolor="#ffffff"
     bordercolor="#000000"
     borderopacity="0.25"
     inkscape:showpageshadow="2"
     inkscape:pageopacity="0.0"
     inkscape:pagecheckerboard="0"
     inkscape:deskcolor="#d1d1d1"
     inkscape:zoom="16.16"
     inkscape:cx="40.006188"
     inkscape:cy="25"
     inkscape:window-width="1920"
     inkscape:window-height="1011"
     inkscape:window-x="0"
     inkscape:window-y="32"
     inkscape:window-maximized="1"
     inkscape:current-layer="svg4" />
  <!--  -->
  <g
     data-v-fde0c5aa=""
     id="28d4870f-927f-4ebc-b0cd-09f4c61bec6c"
     stroke="none"
     fill="#007a50"
     transform="matrix(0.47232726,0,0,0.47232726,15.333775,-4.0841584)">
    <path
       d="m 8.534,46.081 c -0.69,0 -1.25,-0.56 -1.25,-1.25 V 32.765 a 1.25,1.25 0 0 1 2.5,0 v 12.066 c 0,0.69 -0.56,1.25 -1.25,1.25 z m 4.168,40.144 c -0.69,0 -1.25,-0.56 -1.25,-1.25 V 49.479 a 1.25,1.25 0 0 1 2.5,0 v 35.495 a 1.25,1.25 0 0 1 -1.25,1.251 z"
       id="path1" />
    <path
       d="m 12.687,50.358 c -2.942,0 -5.336,-2.449 -5.336,-5.46 a 1.25,1.25 0 0 1 2.5,0 c 0,1.632 1.272,2.96 2.836,2.96 a 1.25,1.25 0 0 1 0,2.5 z m -0.228,-4.277 c -0.69,0 -1.25,-0.56 -1.25,-1.25 V 32.765 a 1.25,1.25 0 0 1 2.5,0 v 12.066 c 0,0.69 -0.56,1.25 -1.25,1.25 z m 3.899,0 c -0.69,0 -1.25,-0.56 -1.25,-1.25 V 32.765 a 1.25,1.25 0 0 1 2.5,0 v 12.066 c 0,0.69 -0.56,1.25 -1.25,1.25 z M 91.164,86.49 c -0.69,0 -1.25,-0.56 -1.25,-1.25 0,-0.425 0.003,-35.414 0.001,-47.628 -1.841,4.31 -4.183,11.774 -4.183,13.62 0,2.496 1.853,2.766 2.649,2.766 a 1.25,1.25 0 0 1 0,2.5 c -3.08,0 -5.149,-2.116 -5.149,-5.266 0,-1.606 4.413,-19.029 7.932,-19.029 0.081,0 0.162,0.008 0.241,0.023 1.009,0.198 1.009,0.32 1.01,3.452 v 5.866 L 92.414,85.24 c 0,0.691 -0.56,1.25 -1.25,1.25 z"
       id="path2" />
    <g
       id="g3">
      <path
         d="M 49.69,92.77 C 32.326,92.77 18.2,78.643 18.2,61.28 c 0,-17.363 14.126,-31.49 31.49,-31.49 17.364,0 31.49,14.127 31.49,31.49 0,17.363 -14.126,31.49 -31.49,31.49 z m 0,-60.104 c -15.778,0 -28.614,12.836 -28.614,28.613 0,15.777 12.836,28.614 28.614,28.614 15.778,0 28.614,-12.836 28.614,-28.613 0,-15.777 -12.836,-28.614 -28.614,-28.614 z"
         id="path3" />
    </g>
    <g
       id="g4">
      <path
         d="m 49.69,83.443 c -12.221,0 -22.164,-9.943 -22.164,-22.164 0,-12.221 9.942,-22.164 22.164,-22.164 12.222,0 22.164,9.943 22.164,22.164 0,12.221 -9.943,22.164 -22.164,22.164 z m 0,-41.451 c -10.635,0 -19.288,8.652 -19.288,19.287 0,10.635 8.652,19.287 19.288,19.287 10.636,0 19.288,-8.652 19.288,-19.287 0,-10.635 -8.653,-19.287 -19.288,-19.287 z"
         id="path4" />
    </g>
  </g>
</svg>
